<mxfile host="Electron" modified="2024-02-18T20:16:06.914Z" agent="Mozilla/5.0 (Windows NT 10.0; Win64; x64) AppleWebKit/537.36 (KHTML, like Gecko) draw.io/23.1.5 Chrome/120.0.6099.109 Electron/28.1.0 Safari/537.36" etag="dJ5yFWb6XRS0J9DwLBrU" version="23.1.5" type="device">
  <diagram name="Страница — 1" id="HsLq53zubuRbjot5mAAJ">
    <mxGraphModel dx="1178" dy="790" grid="1" gridSize="10" guides="1" tooltips="1" connect="1" arrows="1" fold="1" page="1" pageScale="1" pageWidth="1169" pageHeight="826" math="0" shadow="0">
      <root>
        <mxCell id="0" />
        <mxCell id="1" parent="0" />
        <mxCell id="5y0a2fpjLMVxcu59K-3s-3" value="" style="endArrow=open;html=1;rounded=0;align=center;verticalAlign=top;endFill=0;labelBackgroundColor=none;endSize=6;entryX=0;entryY=0.5;entryDx=0;entryDy=0;" parent="1" source="5y0a2fpjLMVxcu59K-3s-2" target="5y0a2fpjLMVxcu59K-3s-7" edge="1">
          <mxGeometry relative="1" as="geometry">
            <mxPoint x="135" y="255" as="targetPoint" />
          </mxGeometry>
        </mxCell>
        <mxCell id="5y0a2fpjLMVxcu59K-3s-5" value="" style="ellipse;html=1;" parent="1" vertex="1">
          <mxGeometry x="730" y="265" width="30" height="30" as="geometry" />
        </mxCell>
        <mxCell id="5y0a2fpjLMVxcu59K-3s-6" value="" style="endArrow=open;html=1;rounded=0;align=center;verticalAlign=top;endFill=0;labelBackgroundColor=none;endSize=6;exitX=1;exitY=0.5;exitDx=0;exitDy=0;" parent="1" source="5y0a2fpjLMVxcu59K-3s-7" target="5y0a2fpjLMVxcu59K-3s-5" edge="1">
          <mxGeometry relative="1" as="geometry">
            <mxPoint x="720" y="235" as="sourcePoint" />
          </mxGeometry>
        </mxCell>
        <mxCell id="5y0a2fpjLMVxcu59K-3s-7" value="Главное окно" style="html=1;align=center;verticalAlign=top;rounded=1;absoluteArcSize=1;arcSize=10;dashed=0;whiteSpace=wrap;" parent="1" vertex="1">
          <mxGeometry x="300" y="260" width="140" height="40" as="geometry" />
        </mxCell>
        <mxCell id="5y0a2fpjLMVxcu59K-3s-25" value="" style="endArrow=open;html=1;rounded=0;align=center;verticalAlign=top;endFill=0;labelBackgroundColor=none;endSize=6;entryX=0.457;entryY=1;entryDx=0;entryDy=0;exitX=0.386;exitY=0.025;exitDx=0;exitDy=0;exitPerimeter=0;entryPerimeter=0;" parent="1" source="5y0a2fpjLMVxcu59K-3s-7" edge="1">
          <mxGeometry relative="1" as="geometry">
            <mxPoint x="303.98" y="80" as="targetPoint" />
            <mxPoint x="417.5" y="240" as="sourcePoint" />
          </mxGeometry>
        </mxCell>
        <mxCell id="5y0a2fpjLMVxcu59K-3s-27" value="" style="endArrow=open;html=1;rounded=0;align=center;verticalAlign=top;endFill=0;labelBackgroundColor=none;endSize=6;entryX=0.5;entryY=1;entryDx=0;entryDy=0;exitX=0;exitY=0;exitDx=0;exitDy=0;" parent="1" source="5y0a2fpjLMVxcu59K-3s-7" edge="1">
          <mxGeometry relative="1" as="geometry">
            <mxPoint x="110" y="80" as="targetPoint" />
            <mxPoint x="305" y="280" as="sourcePoint" />
            <Array as="points" />
          </mxGeometry>
        </mxCell>
        <mxCell id="5y0a2fpjLMVxcu59K-3s-28" value="" style="endArrow=open;html=1;rounded=0;align=center;verticalAlign=top;endFill=0;labelBackgroundColor=none;endSize=6;entryX=0.114;entryY=1.025;entryDx=0;entryDy=0;entryPerimeter=0;" parent="1" source="5y0a2fpjLMVxcu59K-3s-7" edge="1">
          <mxGeometry relative="1" as="geometry">
            <mxPoint x="435.96000000000004" y="81" as="targetPoint" />
            <mxPoint x="331" y="270" as="sourcePoint" />
          </mxGeometry>
        </mxCell>
        <mxCell id="5y0a2fpjLMVxcu59K-3s-37" value="" style="endArrow=open;html=1;rounded=0;align=center;verticalAlign=top;endFill=0;labelBackgroundColor=none;endSize=6;exitX=0.75;exitY=1;exitDx=0;exitDy=0;entryX=0.193;entryY=-0.025;entryDx=0;entryDy=0;entryPerimeter=0;" parent="1" target="5y0a2fpjLMVxcu59K-3s-7" edge="1">
          <mxGeometry relative="1" as="geometry">
            <mxPoint x="310" y="260" as="targetPoint" />
            <mxPoint x="145" y="80" as="sourcePoint" />
            <Array as="points" />
          </mxGeometry>
        </mxCell>
        <mxCell id="5y0a2fpjLMVxcu59K-3s-38" value="" style="endArrow=open;html=1;rounded=0;align=center;verticalAlign=top;endFill=0;labelBackgroundColor=none;endSize=6;exitX=0.629;exitY=1.075;exitDx=0;exitDy=0;entryX=0.5;entryY=0;entryDx=0;entryDy=0;exitPerimeter=0;" parent="1" target="5y0a2fpjLMVxcu59K-3s-7" edge="1">
          <mxGeometry relative="1" as="geometry">
            <mxPoint x="325" y="273" as="targetPoint" />
            <mxPoint x="328.05999999999995" y="83" as="sourcePoint" />
            <Array as="points" />
          </mxGeometry>
        </mxCell>
        <mxCell id="5y0a2fpjLMVxcu59K-3s-39" value="" style="endArrow=open;html=1;rounded=0;align=center;verticalAlign=top;endFill=0;labelBackgroundColor=none;endSize=6;exitX=0.25;exitY=1;exitDx=0;exitDy=0;entryX=0.657;entryY=0.05;entryDx=0;entryDy=0;entryPerimeter=0;" parent="1" target="5y0a2fpjLMVxcu59K-3s-7" edge="1">
          <mxGeometry relative="1" as="geometry">
            <mxPoint x="345" y="270" as="targetPoint" />
            <mxPoint x="455" y="80" as="sourcePoint" />
            <Array as="points" />
          </mxGeometry>
        </mxCell>
        <mxCell id="5y0a2fpjLMVxcu59K-3s-48" value="Начало" style="text;html=1;align=center;verticalAlign=middle;resizable=0;points=[];autosize=1;strokeColor=none;fillColor=none;" parent="1" vertex="1">
          <mxGeometry x="10" y="220" width="70" height="30" as="geometry" />
        </mxCell>
        <mxCell id="5y0a2fpjLMVxcu59K-3s-50" value="Конец" style="text;html=1;align=center;verticalAlign=middle;resizable=0;points=[];autosize=1;strokeColor=none;fillColor=none;" parent="1" vertex="1">
          <mxGeometry x="570" y="220" width="60" height="30" as="geometry" />
        </mxCell>
        <mxCell id="ZaQpbyDmpmn55fcf9WZj-2" value="" style="endArrow=open;html=1;rounded=0;align=center;verticalAlign=top;endFill=0;labelBackgroundColor=none;endSize=6;entryX=0.186;entryY=1;entryDx=0;entryDy=0;exitX=0.886;exitY=-0.025;exitDx=0;exitDy=0;exitPerimeter=0;entryPerimeter=0;" parent="1" source="5y0a2fpjLMVxcu59K-3s-7" target="JSFWtal9yPuNM-G-sTft-37" edge="1">
          <mxGeometry relative="1" as="geometry">
            <mxPoint x="560" y="150" as="targetPoint" />
            <mxPoint x="387" y="270" as="sourcePoint" />
          </mxGeometry>
        </mxCell>
        <mxCell id="ZaQpbyDmpmn55fcf9WZj-3" value="" style="endArrow=open;html=1;rounded=0;align=center;verticalAlign=top;endFill=0;labelBackgroundColor=none;endSize=6;exitX=0.421;exitY=1.05;exitDx=0;exitDy=0;entryX=1;entryY=0;entryDx=0;entryDy=0;exitPerimeter=0;" parent="1" source="JSFWtal9yPuNM-G-sTft-37" target="5y0a2fpjLMVxcu59K-3s-7" edge="1">
          <mxGeometry relative="1" as="geometry">
            <mxPoint x="402" y="272" as="targetPoint" />
            <mxPoint x="560" y="160" as="sourcePoint" />
            <Array as="points" />
          </mxGeometry>
        </mxCell>
        <mxCell id="JSFWtal9yPuNM-G-sTft-2" value="" style="group" vertex="1" connectable="0" parent="1">
          <mxGeometry x="40" y="265" width="30" height="30" as="geometry" />
        </mxCell>
        <mxCell id="5y0a2fpjLMVxcu59K-3s-2" value="" style="ellipse;html=1;" parent="JSFWtal9yPuNM-G-sTft-2" vertex="1">
          <mxGeometry width="30" height="30" as="geometry" />
        </mxCell>
        <mxCell id="JSFWtal9yPuNM-G-sTft-1" value="" style="ellipse;whiteSpace=wrap;html=1;aspect=fixed;fillColor=#000000;" vertex="1" parent="JSFWtal9yPuNM-G-sTft-2">
          <mxGeometry x="5" y="5" width="20" height="20" as="geometry" />
        </mxCell>
        <mxCell id="JSFWtal9yPuNM-G-sTft-3" value="" style="endArrow=open;html=1;rounded=0;align=center;verticalAlign=top;endFill=0;labelBackgroundColor=none;endSize=6;entryX=0;entryY=0.5;entryDx=0;entryDy=0;" edge="1" parent="1" source="JSFWtal9yPuNM-G-sTft-31" target="JSFWtal9yPuNM-G-sTft-6">
          <mxGeometry relative="1" as="geometry">
            <mxPoint x="155" y="585" as="targetPoint" />
          </mxGeometry>
        </mxCell>
        <mxCell id="JSFWtal9yPuNM-G-sTft-4" value="" style="ellipse;html=1;" vertex="1" parent="1">
          <mxGeometry x="760" y="595" width="30" height="30" as="geometry" />
        </mxCell>
        <mxCell id="JSFWtal9yPuNM-G-sTft-5" value="" style="endArrow=open;html=1;rounded=0;align=center;verticalAlign=top;endFill=0;labelBackgroundColor=none;endSize=6;exitX=1;exitY=0.5;exitDx=0;exitDy=0;" edge="1" parent="1" source="JSFWtal9yPuNM-G-sTft-6" target="JSFWtal9yPuNM-G-sTft-4">
          <mxGeometry relative="1" as="geometry">
            <mxPoint x="740" y="565" as="sourcePoint" />
          </mxGeometry>
        </mxCell>
        <mxCell id="JSFWtal9yPuNM-G-sTft-6" value="Главное окно" style="html=1;align=center;verticalAlign=top;rounded=1;absoluteArcSize=1;arcSize=10;dashed=0;whiteSpace=wrap;" vertex="1" parent="1">
          <mxGeometry x="320" y="590" width="140" height="40" as="geometry" />
        </mxCell>
        <mxCell id="JSFWtal9yPuNM-G-sTft-7" value="Печать зачетных книжек" style="html=1;align=center;verticalAlign=top;rounded=1;absoluteArcSize=1;arcSize=10;dashed=0;whiteSpace=wrap;" vertex="1" parent="1">
          <mxGeometry x="440" y="370" width="140" height="40" as="geometry" />
        </mxCell>
        <mxCell id="JSFWtal9yPuNM-G-sTft-8" value="Контроль внешнего вида документов" style="html=1;align=center;verticalAlign=top;rounded=1;absoluteArcSize=1;arcSize=10;dashed=0;whiteSpace=wrap;" vertex="1" parent="1">
          <mxGeometry x="260" y="370" width="140" height="40" as="geometry" />
        </mxCell>
        <mxCell id="JSFWtal9yPuNM-G-sTft-9" value="Поиск и формирование списка для печати" style="html=1;align=center;verticalAlign=top;rounded=1;absoluteArcSize=1;arcSize=10;dashed=0;whiteSpace=wrap;" vertex="1" parent="1">
          <mxGeometry x="60" y="370" width="140" height="40" as="geometry" />
        </mxCell>
        <mxCell id="JSFWtal9yPuNM-G-sTft-13" value="" style="endArrow=open;html=1;rounded=0;align=center;verticalAlign=top;endFill=0;labelBackgroundColor=none;endSize=6;entryX=0.457;entryY=1;entryDx=0;entryDy=0;exitX=0.386;exitY=0.025;exitDx=0;exitDy=0;exitPerimeter=0;entryPerimeter=0;" edge="1" parent="1" source="JSFWtal9yPuNM-G-sTft-6" target="JSFWtal9yPuNM-G-sTft-8">
          <mxGeometry relative="1" as="geometry">
            <mxPoint x="232.5" y="450" as="targetPoint" />
            <mxPoint x="437.5" y="570" as="sourcePoint" />
          </mxGeometry>
        </mxCell>
        <mxCell id="JSFWtal9yPuNM-G-sTft-14" value="" style="endArrow=open;html=1;rounded=0;align=center;verticalAlign=top;endFill=0;labelBackgroundColor=none;endSize=6;entryX=0.5;entryY=1;entryDx=0;entryDy=0;exitX=0;exitY=0;exitDx=0;exitDy=0;" edge="1" parent="1" source="JSFWtal9yPuNM-G-sTft-6" target="JSFWtal9yPuNM-G-sTft-9">
          <mxGeometry relative="1" as="geometry">
            <mxPoint x="120" y="490" as="targetPoint" />
            <mxPoint x="325" y="610" as="sourcePoint" />
            <Array as="points" />
          </mxGeometry>
        </mxCell>
        <mxCell id="JSFWtal9yPuNM-G-sTft-15" value="" style="endArrow=open;html=1;rounded=0;align=center;verticalAlign=top;endFill=0;labelBackgroundColor=none;endSize=6;entryX=0.114;entryY=1.025;entryDx=0;entryDy=0;entryPerimeter=0;" edge="1" parent="1" source="JSFWtal9yPuNM-G-sTft-6" target="JSFWtal9yPuNM-G-sTft-7">
          <mxGeometry relative="1" as="geometry">
            <mxPoint x="261" y="454" as="targetPoint" />
            <mxPoint x="351" y="600" as="sourcePoint" />
          </mxGeometry>
        </mxCell>
        <mxCell id="JSFWtal9yPuNM-G-sTft-19" value="" style="endArrow=open;html=1;rounded=0;align=center;verticalAlign=top;endFill=0;labelBackgroundColor=none;endSize=6;exitX=0.75;exitY=1;exitDx=0;exitDy=0;entryX=0.193;entryY=-0.025;entryDx=0;entryDy=0;entryPerimeter=0;" edge="1" parent="1" source="JSFWtal9yPuNM-G-sTft-9" target="JSFWtal9yPuNM-G-sTft-6">
          <mxGeometry relative="1" as="geometry">
            <mxPoint x="330" y="590" as="targetPoint" />
            <mxPoint x="380" y="495" as="sourcePoint" />
            <Array as="points" />
          </mxGeometry>
        </mxCell>
        <mxCell id="JSFWtal9yPuNM-G-sTft-20" value="" style="endArrow=open;html=1;rounded=0;align=center;verticalAlign=top;endFill=0;labelBackgroundColor=none;endSize=6;exitX=0.629;exitY=1.075;exitDx=0;exitDy=0;entryX=0.5;entryY=0;entryDx=0;entryDy=0;exitPerimeter=0;" edge="1" parent="1" source="JSFWtal9yPuNM-G-sTft-8" target="JSFWtal9yPuNM-G-sTft-6">
          <mxGeometry relative="1" as="geometry">
            <mxPoint x="345" y="603" as="targetPoint" />
            <mxPoint x="195" y="480" as="sourcePoint" />
            <Array as="points" />
          </mxGeometry>
        </mxCell>
        <mxCell id="JSFWtal9yPuNM-G-sTft-21" value="" style="endArrow=open;html=1;rounded=0;align=center;verticalAlign=top;endFill=0;labelBackgroundColor=none;endSize=6;exitX=0.25;exitY=1;exitDx=0;exitDy=0;entryX=0.657;entryY=0.05;entryDx=0;entryDy=0;entryPerimeter=0;" edge="1" parent="1" source="JSFWtal9yPuNM-G-sTft-7" target="JSFWtal9yPuNM-G-sTft-6">
          <mxGeometry relative="1" as="geometry">
            <mxPoint x="365" y="600" as="targetPoint" />
            <mxPoint x="286" y="450" as="sourcePoint" />
            <Array as="points" />
          </mxGeometry>
        </mxCell>
        <mxCell id="JSFWtal9yPuNM-G-sTft-25" value="Начало" style="text;html=1;align=center;verticalAlign=middle;resizable=0;points=[];autosize=1;strokeColor=none;fillColor=none;" vertex="1" parent="1">
          <mxGeometry x="30" y="550" width="70" height="30" as="geometry" />
        </mxCell>
        <mxCell id="JSFWtal9yPuNM-G-sTft-26" value="Конец" style="text;html=1;align=center;verticalAlign=middle;resizable=0;points=[];autosize=1;strokeColor=none;fillColor=none;" vertex="1" parent="1">
          <mxGeometry x="590" y="550" width="60" height="30" as="geometry" />
        </mxCell>
        <mxCell id="JSFWtal9yPuNM-G-sTft-27" value="Редактирование внешнего вида документов" style="html=1;align=center;verticalAlign=top;rounded=1;absoluteArcSize=1;arcSize=10;dashed=0;whiteSpace=wrap;" vertex="1" parent="1">
          <mxGeometry x="600" y="370" width="180" height="40" as="geometry" />
        </mxCell>
        <mxCell id="JSFWtal9yPuNM-G-sTft-28" value="" style="endArrow=open;html=1;rounded=0;align=center;verticalAlign=top;endFill=0;labelBackgroundColor=none;endSize=6;entryX=0.094;entryY=1.075;entryDx=0;entryDy=0;exitX=0.886;exitY=-0.025;exitDx=0;exitDy=0;exitPerimeter=0;entryPerimeter=0;" edge="1" parent="1" source="JSFWtal9yPuNM-G-sTft-6" target="JSFWtal9yPuNM-G-sTft-27">
          <mxGeometry relative="1" as="geometry">
            <mxPoint x="466" y="421" as="targetPoint" />
            <mxPoint x="407" y="600" as="sourcePoint" />
          </mxGeometry>
        </mxCell>
        <mxCell id="JSFWtal9yPuNM-G-sTft-29" value="" style="endArrow=open;html=1;rounded=0;align=center;verticalAlign=top;endFill=0;labelBackgroundColor=none;endSize=6;exitX=0.25;exitY=1;exitDx=0;exitDy=0;entryX=1;entryY=0;entryDx=0;entryDy=0;" edge="1" parent="1" source="JSFWtal9yPuNM-G-sTft-27" target="JSFWtal9yPuNM-G-sTft-6">
          <mxGeometry relative="1" as="geometry">
            <mxPoint x="422" y="602" as="targetPoint" />
            <mxPoint x="485" y="420" as="sourcePoint" />
            <Array as="points" />
          </mxGeometry>
        </mxCell>
        <mxCell id="JSFWtal9yPuNM-G-sTft-30" value="" style="group" vertex="1" connectable="0" parent="1">
          <mxGeometry x="60" y="595" width="30" height="30" as="geometry" />
        </mxCell>
        <mxCell id="JSFWtal9yPuNM-G-sTft-31" value="" style="ellipse;html=1;" vertex="1" parent="JSFWtal9yPuNM-G-sTft-30">
          <mxGeometry width="30" height="30" as="geometry" />
        </mxCell>
        <mxCell id="JSFWtal9yPuNM-G-sTft-32" value="" style="ellipse;whiteSpace=wrap;html=1;aspect=fixed;fillColor=#000000;" vertex="1" parent="JSFWtal9yPuNM-G-sTft-30">
          <mxGeometry x="5" y="5" width="20" height="20" as="geometry" />
        </mxCell>
        <mxCell id="JSFWtal9yPuNM-G-sTft-33" value="Программа формирования заказа" style="text;html=1;align=center;verticalAlign=middle;resizable=0;points=[];autosize=1;strokeColor=none;fillColor=none;" vertex="1" parent="1">
          <mxGeometry x="290" width="210" height="30" as="geometry" />
        </mxCell>
        <mxCell id="JSFWtal9yPuNM-G-sTft-34" value="Поиск и составление списка студентов" style="html=1;align=center;verticalAlign=top;rounded=1;absoluteArcSize=1;arcSize=10;dashed=0;whiteSpace=wrap;" vertex="1" parent="1">
          <mxGeometry x="40" y="40" width="140" height="40" as="geometry" />
        </mxCell>
        <mxCell id="JSFWtal9yPuNM-G-sTft-35" value="Формирование заказа" style="html=1;align=center;verticalAlign=top;rounded=1;absoluteArcSize=1;arcSize=10;dashed=0;whiteSpace=wrap;" vertex="1" parent="1">
          <mxGeometry x="220" y="40" width="140" height="40" as="geometry" />
        </mxCell>
        <mxCell id="JSFWtal9yPuNM-G-sTft-36" value="Контроль состояния заказа" style="html=1;align=center;verticalAlign=top;rounded=1;absoluteArcSize=1;arcSize=10;dashed=0;whiteSpace=wrap;" vertex="1" parent="1">
          <mxGeometry x="390" y="40" width="140" height="40" as="geometry" />
        </mxCell>
        <mxCell id="JSFWtal9yPuNM-G-sTft-37" value="Формирование и печать ведомости" style="html=1;align=center;verticalAlign=top;rounded=1;absoluteArcSize=1;arcSize=10;dashed=0;whiteSpace=wrap;" vertex="1" parent="1">
          <mxGeometry x="550" y="40" width="140" height="40" as="geometry" />
        </mxCell>
        <mxCell id="JSFWtal9yPuNM-G-sTft-38" value="Программа печати зачетных книжек" style="text;html=1;align=center;verticalAlign=middle;resizable=0;points=[];autosize=1;strokeColor=none;fillColor=none;" vertex="1" parent="1">
          <mxGeometry x="260" y="330" width="220" height="30" as="geometry" />
        </mxCell>
      </root>
    </mxGraphModel>
  </diagram>
</mxfile>
